<svg width="83" height="82" viewBox="0 0 83 82" fill="none" xmlns="http://www.w3.org/2000/svg">
<g id="chef 1" clip-path="url(#clip0_49_1004)">
<g id="Group">
<g id="Group_2">
<g id="Group_3">
<path id="Vector" d="M22.6364 38.6137C22.6364 37.571 21.7926 36.7273 20.75 36.7273C19.7073 36.7273 18.8635 37.571 18.8635 38.6137C18.8635 43.5672 24.3274 50.3685 24.9501 51.1293C25.3241 51.5826 25.8656 51.8183 26.4108 51.8183C26.8308 51.8183 27.2546 51.6783 27.6063 51.3909C28.4113 50.7295 28.5273 49.5414 27.8679 48.7345C25.8454 46.2698 22.6364 41.3437 22.6364 38.6137Z" fill="#FF9900"/>
<path id="Vector_2" d="M62.25 36.7273C61.2074 36.7273 60.3636 37.571 60.3636 38.6137C60.3636 41.3345 57.1546 46.266 55.132 48.7364C54.4725 49.5414 54.5903 50.7297 55.3955 51.3909C55.7455 51.6783 56.1692 51.8183 56.591 51.8183C57.1362 51.8183 57.6759 51.5826 58.0499 51.1293C58.6726 50.3685 64.1365 43.5674 64.1365 38.6137C64.1365 37.571 63.2927 36.7273 62.25 36.7273Z" fill="#FF9900"/>
<path id="Vector_3" d="M41.5001 36.7273C40.4574 36.7273 39.6136 37.571 39.6136 38.6137V49.9319C39.6136 50.9746 40.4574 51.8183 41.5001 51.8183C42.5428 51.8183 43.3865 50.9746 43.3865 49.9319V38.6137C43.3863 37.571 42.5426 36.7273 41.5001 36.7273Z" fill="#FF9900"/>
<path id="Vector_4" d="M62.25 6.54552C61.1069 6.54552 59.9123 6.69672 58.6717 6.92715C54.5171 2.08403 48.3669 -1 41.5001 -1C34.6333 -1 28.4829 2.08403 24.3284 6.92698C23.0877 6.69672 21.8931 6.54534 20.7501 6.54534C9.30833 6.54552 0 15.8538 0 27.2955C0 35.1356 4.42117 42.2629 11.3624 45.7869L11.3256 74.2943C11.3238 76.3519 12.1232 78.2862 13.5767 79.7415C15.032 81.1987 16.9644 82 19.0222 82H63.9854C68.2298 82 71.682 78.5478 71.682 74.3035V45.7593C78.5974 42.2261 83.0002 35.1098 83.0002 27.2955C83 15.8538 73.6917 6.54552 62.25 6.54552ZM67.9091 74.3036C67.9091 76.4663 66.1481 78.2275 63.9853 78.2275H19.022C17.9738 78.2275 16.9882 77.8185 16.2458 77.0762C15.5052 76.3338 15.0963 75.3483 15.0981 74.2983L15.108 66.9091H67.9091V74.3036ZM69.077 42.823C68.9775 42.8635 68.8836 42.9114 68.7951 42.9685C68.5575 43.1158 68.3622 43.3112 68.2167 43.5358C68.0694 43.7587 67.9698 44.0167 67.9293 44.2929C67.9127 44.398 67.9072 44.503 67.909 44.6098V63.1363H15.1128L15.137 44.6355C15.1388 44.5324 15.1333 44.4273 15.1186 44.326C15.0781 44.0404 14.9731 43.7751 14.8201 43.5449C14.6763 43.3293 14.4885 43.1415 14.26 42.9977C14.1661 42.9388 14.0666 42.8872 13.9635 42.8447C7.77206 40.1372 3.77267 34.0395 3.77267 27.2955C3.77267 17.9336 11.3882 10.3182 20.75 10.3182C21.1159 10.3182 21.5021 10.3624 21.8811 10.3923C19.9725 13.7092 18.8635 17.5422 18.8635 21.6364C18.8635 22.6791 19.7073 23.5228 20.75 23.5228C21.7926 23.5228 22.6364 22.6791 22.6364 21.6364C22.6364 11.2355 31.0992 2.77267 41.5001 2.77267C51.901 2.77267 60.3636 11.2355 60.3636 21.6364C60.3636 22.6791 61.2074 23.5228 62.25 23.5228C63.2927 23.5228 64.1365 22.6791 64.1365 21.6364C64.1365 17.5422 63.0275 13.7094 61.1189 10.3923C61.4979 10.3624 61.8841 10.3182 62.25 10.3182C71.612 10.3182 79.2273 17.9337 79.2273 27.2955C79.2273 34.0156 75.2446 40.1057 69.077 42.823Z" fill="#FF9900"/>
</g>
</g>
</g>
</g>
<defs>
<clipPath id="clip0_49_1004">
<rect width="83" height="83" fill="white" transform="translate(0 -1)"/>
</clipPath>
</defs>
</svg>
