<svg width="71" height="71" viewBox="0 0 71 71" fill="none" xmlns="http://www.w3.org/2000/svg">
<g id="spaguetti 1" clip-path="url(#clip0_49_927)">
<g id="Group">
<path id="Vector" d="M31.7862 21.9495C32.6428 21.9495 33.4227 21.6169 34.005 21.0745C34.5873 21.6169 35.3672 21.9495 36.2237 21.9495C38.0206 21.9495 39.4825 20.4877 39.4825 18.6907V17.3302H41.7273C42.6627 17.3302 43.5661 16.9389 44.2057 16.2566L50.4856 9.55907C50.5509 9.48959 50.643 9.44965 50.7384 9.44965H69.1279C70.1602 9.44965 71 8.60986 71 7.57759V4.43445C71 3.40217 70.1602 2.56238 69.1279 2.56238H50.5973C49.6158 2.56238 48.6833 2.93457 47.9717 3.61032L40.7666 10.4509C40.4427 10.7584 40.1511 10.8206 39.4824 10.8232V10.0045C39.4824 8.20757 38.0205 6.74569 36.2236 6.74569C35.367 6.74569 34.5871 7.07837 34.0048 7.62071C33.4226 7.07837 32.6427 6.74569 31.7861 6.74569C30.9295 6.74569 30.1496 7.07837 29.5673 7.62071C28.9851 7.07837 28.2052 6.74569 27.3486 6.74569C26.492 6.74569 25.7121 7.07837 25.1298 7.62071C24.5476 7.07837 23.7677 6.74569 22.9111 6.74569C21.1142 6.74569 19.6523 8.20757 19.6523 10.0045V26.5277C18.9424 27.681 18.7127 29.0531 18.999 30.3716C17.3958 31.5929 15.9502 33.0074 14.6966 34.5864C14.3395 35.0363 14.4147 35.6905 14.8645 36.0476C15.3144 36.4047 15.9686 36.3295 16.3257 35.8797C17.3695 34.5648 18.5582 33.374 19.8693 32.3284C20.8934 33.7543 22.5084 34.4909 24.1092 34.4909C27.0058 34.4909 29.3431 32.1289 29.3431 29.2484C29.3431 28.8192 29.2879 28.3903 29.1809 27.973C31.7057 27.4634 33.2463 27.5253 35.8081 27.5253C45.5275 27.5253 50.8565 33.5965 51.3197 33.8522C55.0222 37.5045 57.2623 42.3085 57.7542 47.4451C57.8266 48.2158 57.447 48.9632 56.7491 49.3425C56.7384 49.3483 56.7282 49.3547 56.7174 49.3604C55.7945 49.8399 54.8004 49.5078 54.1099 48.7203C54.1038 48.7132 54.0976 48.706 54.0916 48.6988C53.7094 48.2541 53.4451 47.6389 53.4167 47.0031L53.3607 45.7465C53.2805 43.9541 51.6494 42.6725 49.9133 42.9722C48.8014 43.1586 47.9085 43.9581 47.5911 45.024C47.3782 45.7259 47.5588 45.9097 47.3153 46.4548C47.3076 46.4688 47.2982 46.4816 47.2911 46.4961C47.0243 47.0458 46.4999 47.4116 45.8908 47.465C45.2492 47.5206 44.6489 47.2415 44.2864 46.7276C44.0857 46.4429 43.9668 46.0966 43.9668 45.7226V42.933C43.9668 41.5744 43.4668 40.498 42.6091 39.6898C42.4488 39.5388 42.2776 39.4011 42.0979 39.2774C43.1365 38.321 43.7886 36.9509 43.7886 35.4311C43.7886 32.5471 41.4424 30.2009 38.5584 30.2009C35.6744 30.2009 33.3283 32.5471 33.3283 35.4311C33.3283 37.5033 34.5397 39.2978 36.2914 40.1438C35.7312 40.8455 35.3913 41.71 35.335 42.633C35.3341 42.6456 35.3328 42.6581 35.3322 42.6707C35.3232 42.8411 35.3257 42.6361 35.3257 45.9306C35.3257 48.0517 35.3559 48.1333 35.2238 48.5016C35.2228 48.5042 35.2218 48.5069 35.2209 48.5095C34.9516 49.2489 34.2364 49.6989 33.5058 49.6717C32.5737 49.6386 31.8156 48.8218 31.8156 47.8509V46.5122V40.7246C31.8156 39.3526 30.6993 38.2364 29.3274 38.2364C28.4494 38.2364 21.6762 38.2364 20.6513 38.2364C19.1821 38.2364 17.9246 39.236 17.5929 40.6673L17.1547 42.5594C16.9607 43.3939 16.2797 43.9541 15.4652 43.99C14.8003 44.0188 14.2616 44.0016 13.8679 43.5022C13.6847 43.2748 13.5745 42.9855 13.5745 42.6706V42.6173C13.5743 41.634 13.733 40.6554 14.0457 39.709C14.2259 39.1636 13.9299 38.5753 13.3845 38.3951C12.8389 38.2149 12.251 38.5107 12.0706 39.0562C11.688 40.2137 11.4941 41.412 11.4942 42.6175V42.6706C11.4942 42.9743 11.5347 43.2687 11.6095 43.5491C7.51602 45.6592 4.46066 49.4073 3.23119 53.8369C1.42929 53.9582 0 55.4621 0 57.2945C0 59.0633 1.3318 60.5258 3.0451 60.7347L3.49384 64.3625C3.78117 66.6856 5.7632 68.4376 8.10426 68.4376H53.8037C54.3782 68.4376 54.8438 67.972 54.8438 67.3976C54.8438 66.8232 54.3782 66.3575 53.8037 66.3575H8.10426C6.81156 66.3575 5.71689 65.39 5.55825 64.107L5.14445 60.7612H65.825L65.4112 64.107C65.2525 65.39 64.1579 66.3575 62.8652 66.3575H58.6574C58.0829 66.3575 57.6173 66.8232 57.6173 67.3976C57.6173 67.972 58.0829 68.4376 58.6574 68.4376H62.8652C65.2063 68.4376 67.1883 66.6856 67.4757 64.3625L67.924 60.7386C69.6521 60.544 71 59.0741 71 57.2945C71 55.508 69.6416 54.0331 67.9033 53.8477C67.3262 51.0844 66.1708 48.4306 64.5315 46.1264C62.8285 43.7327 60.5955 41.7 58.0582 40.2262C56.9054 37.483 55.2445 34.9611 53.1424 32.7915C53.5205 32.058 53.7183 31.2473 53.7183 30.4048C53.7183 27.521 51.3721 25.1746 48.4881 25.1746C46.9298 25.1746 45.4634 25.8778 44.4789 27.0525C41.7395 25.9981 38.8061 25.445 35.8081 25.445C34.0657 25.445 32.48 25.4005 30.6074 25.6282V21.7281C30.9733 21.8705 31.3706 21.9495 31.7862 21.9495ZM29.2233 40.3161H29.3276C29.5526 40.3161 29.7357 40.4991 29.7357 40.7242V44.4287C28.725 43.7653 27.6476 43.2169 26.5238 42.7908C27.2494 41.795 28.1652 40.9538 29.2233 40.3161ZM44.0229 53.8277C44.6084 53.0633 45.5296 52.578 46.5366 52.578C47.0317 52.578 48.5009 52.4449 49.5599 53.8277H44.0229ZM36.114 52.3362C36.0608 52.1975 35.8517 51.6726 35.6204 51.1848C35.6169 51.1775 35.614 51.1702 35.6105 51.163C36.5529 50.5686 37.2191 49.5759 37.3717 48.4228C37.3721 48.4194 37.3729 48.4159 37.3735 48.4123C37.3742 48.4076 37.3743 48.4029 37.3748 48.3981C37.4144 48.0834 37.406 48.0243 37.406 46.4477C38.7605 45.4607 40.2847 44.7146 41.887 44.2517C41.887 45.8718 41.8563 46.1073 42.0116 46.6922C39.3789 47.7605 37.28 49.7857 36.114 52.3362ZM38.1539 41.2029C38.6447 40.9784 39.1478 40.7741 39.6535 40.5944C40.6241 40.5944 41.4687 41.2357 41.7692 42.128C40.2393 42.5219 38.7653 43.1412 37.4059 43.9568V42.9079C37.4059 42.2856 37.6602 41.6659 38.1539 41.2029ZM58.0241 53.8277C57.7826 53.0102 57.4455 52.2202 57.0215 51.4771C57.9992 51.1678 58.8211 50.5054 59.3222 49.6241C59.3266 49.6162 59.331 49.6085 59.3353 49.6006C60.2758 50.8852 60.9947 52.3123 61.4631 53.8277H58.0241ZM49.5445 45.853C49.559 45.3486 50.0117 44.9476 50.5265 45.0158C50.9457 45.0706 51.2637 45.417 51.2827 45.8392L51.3164 46.5944C50.7366 46.3749 50.1386 46.2038 49.5303 46.0841C49.5371 46.0076 49.5423 45.9308 49.5445 45.853ZM45.7368 49.5523C46.9375 49.5523 48.049 49.0037 48.7681 48.0608C49.8714 48.2309 50.9419 48.6084 51.9074 49.1692C52.493 50.2655 53.4651 51.0788 54.5026 51.4416C55.066 52.1667 55.5156 52.9742 55.8339 53.8276H51.9265C51.1497 51.8562 49.217 50.4978 47.0462 50.4978H46.5365C44.3657 50.4978 42.4332 51.8562 41.6563 53.8276H37.7459C38.654 51.3659 40.5973 49.4171 43.0873 48.5056C43.7863 49.1662 44.7324 49.5522 45.7166 49.5522H45.7368V49.5523ZM38.5585 32.2807C40.2954 32.2807 41.7086 33.6938 41.7086 35.4308C41.7086 37.1677 40.2956 38.5809 38.5585 38.5809C36.8215 38.5809 35.4085 37.1678 35.4085 35.4308C35.4085 33.6939 36.8215 32.2807 38.5585 32.2807ZM20.6514 40.3161H25.8984C25.3524 40.8746 24.8639 41.4901 24.4409 42.1542C23.2098 41.8649 21.9418 41.7149 20.66 41.7149H19.4855L19.6194 41.1363C19.7313 40.6535 20.1557 40.3161 20.6514 40.3161ZM12.7341 45.3098C13.9884 46.3587 15.9054 46.1532 16.7968 45.8066C16.799 45.8058 16.8011 45.8048 16.8031 45.804C17.736 45.4393 18.4991 44.7239 18.9205 43.798C19.0948 43.7941 19.0463 43.7951 20.6602 43.7951C23.9657 43.7951 27.17 44.9295 29.7358 46.9988C29.7358 47.9204 29.6652 48.673 30.1826 49.6613C30.8369 50.9107 32.1236 51.7562 33.5809 51.7526C33.9248 52.4329 34.2048 53.1192 34.4331 53.8278H32.2251C30.4472 49.2248 25.9893 45.8753 20.6603 45.8753H19.1787C16.4911 45.8753 13.9326 46.7249 11.78 48.3323C9.90838 49.7298 8.4508 51.6611 7.61392 53.8278H5.40349C6.59246 50.1415 9.24442 47.0497 12.7341 45.3098ZM26.4206 53.8277C25.3502 51.4215 22.9752 49.8524 20.2896 49.8524H19.5489C16.8633 49.8524 14.4883 51.4213 13.418 53.8277H9.87274C11.5638 50.2644 15.1424 47.9552 19.1785 47.9552H20.66C24.6961 47.9552 28.2746 50.2644 29.9657 53.8277H26.4206ZM24.03 53.8277H15.8087C16.663 52.6566 18.034 51.9325 19.549 51.9325H20.2898C21.8045 51.9326 23.1757 52.6566 24.03 53.8277ZM68.9199 57.2945C68.9199 58.0591 68.2978 58.6812 67.5332 58.6812C67.109 58.6812 4.76241 58.6812 3.4668 58.6812C2.70216 58.6812 2.08008 58.0591 2.08008 57.2945C2.08008 56.5299 2.70216 55.9078 3.4668 55.9078H67.5332C68.2978 55.9078 68.9199 56.5299 68.9199 57.2945ZM65.7723 53.8277H63.6245C62.936 51.2461 61.6223 48.8682 59.7877 46.8898C59.6582 45.7176 59.4352 44.5379 59.1566 43.4689C62.4808 46.0626 64.8108 49.6922 65.7723 53.8277ZM46.5203 27.9478C48.8895 26.0523 52.3554 28.3006 51.5209 31.2623C50.0386 29.9877 48.3127 28.8365 46.5203 27.9478ZM42.199 11.9592L49.4042 5.11852C49.7275 4.8115 50.1514 4.64232 50.5973 4.64232H68.9199V7.36958H50.7385C50.0703 7.36958 49.4249 7.64914 48.9682 8.13643L42.6883 14.8339C42.1855 15.3703 41.7763 15.2502 39.4825 15.2502V12.9034C40.426 12.8995 41.3271 12.7867 42.199 11.9592ZM36.2237 8.82563C36.8737 8.82563 37.4024 9.35439 37.4024 10.0043V11.8527V16.2902V18.6907C37.4024 19.3407 36.8737 19.8695 36.2237 19.8695C35.5738 19.8695 35.045 19.3407 35.045 18.6907V10.0043C35.045 9.35439 35.5738 8.82563 36.2237 8.82563ZM31.7862 8.82563C32.4362 8.82563 32.9649 9.35439 32.9649 10.0043V18.6907C32.9649 19.3407 32.4362 19.8695 31.7862 19.8695C31.1363 19.8695 30.6075 19.3407 30.6075 18.6907V10.0043C30.6075 9.35439 31.1363 8.82563 31.7862 8.82563ZM27.2594 29.2606C27.2594 30.8614 25.9999 32.3168 24.2745 32.4062C22.4428 32.495 20.9594 31.0413 20.9594 29.2606C20.9594 27.6447 22.1904 26.2908 23.7857 26.1272C23.7878 26.1269 23.79 26.1268 23.7921 26.1266C25.6586 25.939 27.2594 27.4132 27.2594 29.2606ZM21.7325 10.0043C21.7325 9.35439 22.2613 8.82563 22.9112 8.82563C23.5612 8.82563 24.0899 9.35439 24.0899 10.0043V24.0278C23.2632 24.0288 22.4571 24.2257 21.7325 24.5965V10.0043ZM28.2348 26.0465C27.722 25.3898 27.027 24.8345 26.2202 24.4771C26.2033 24.4696 26.1871 24.4609 26.17 24.4537V10.0043C26.17 9.35439 26.6988 8.82563 27.3487 8.82563C27.9987 8.82563 28.5274 9.35439 28.5274 10.0043V25.9799C28.4313 26.0007 28.3326 26.024 28.2348 26.0465Z" fill="white"/>
</g>
</g>
<defs>
<clipPath id="clip0_49_927">
<rect width="71" height="71" fill="white"/>
</clipPath>
</defs>
</svg>
